<svg version="1.2" baseProfile="tiny-ps" xmlns="http://www.w3.org/2000/svg" viewBox="0 0 640 512" width="640" height="512">
	<title>project-diagram-solid-svg</title>
	<style>
		tspan { white-space:pre }
		.shp0 { fill: #ff6666 } 
		.shp1 { fill: #77dd77 } 
		.shp2 { fill: #ffee66 } 
	</style>
	<path id="Layer" class="shp0" d="M384 320L256 320C238.33 320 224 334.33 224 352L224 480C224 497.67 238.33 512 256 512L384 512C401.67 512 416 497.67 416 480L416 352C416 334.33 401.67 320 384 320ZM192 32C192 14.33 177.67 0 160 0L32 0C14.33 0 0 14.33 0 32L0 160C0 177.67 14.33 192 32 192L127.72 192L200.88 320.04C211.98 300.98 232.4 288 256 288L256.28 288L192 175.51L192 128L416 128L416 64L192 64L192 32ZM608 0L480 0C462.33 0 448 14.33 448 32L448 160C448 177.67 462.33 192 480 192L608 192C625.67 192 640 177.67 640 160L640 32C640 14.33 625.67 0 608 0Z" />
	<path id="Shape 1" class="shp1" d="M478 0L610 0C626.59 0 640 13.41 640 30L640 162C640 178.59 626.59 192 610 192L478 192C461.41 192 448 178.59 448 162L448 30C448 13.41 461.41 0 478 0Z" />
	<path id="Shape 2" class="shp0" d="M30 0L162 0C178.59 0 192 13.41 192 30L192 162C192 178.59 178.59 192 162 192L30 192C13.41 192 0 178.59 0 162L0 30C0 13.41 13.41 0 30 0Z" />
	<path id="Shape 3" class="shp2" d="M254 320L386 320C402.59 320 416 333.41 416 350L416 482C416 498.59 402.59 512 386 512L254 512C237.41 512 224 498.59 224 482L224 350C224 333.41 237.41 320 254 320Z" />
</svg>